<?xml version="1.0" encoding="utf-8"?>
<!-- Generator: Adobe Illustrator 21.0.0, SVG Export Plug-In . SVG Version: 6.00 Build 0)  -->
<svg version="1.1" id="Layer_1" xmlns="http://www.w3.org/2000/svg" xmlns:xlink="http://www.w3.org/1999/xlink" x="0px" y="0px"
	 viewBox="0 0 2000 2000" style="enable-background:new 0 0 2000 2000;" xml:space="preserve">
<style type="text/css">
	.st0{fill:#EAB026;}
</style>
<g>
	<path class="st0" d="M910,1189c0-33.8,0-67.7,0-101.5c0-9.5-0.2-19,0.1-28.5c0.1-2.4,0.9-5.3,2.4-7.1
		c31.9-38.9,63.9-77.7,96.1-116.5c1.4-1.6,4.1-3,6.1-3c49.5-0.2,99-0.1,148.5-0.1c1.1,0,2.3,0.2,3.7,0.3c-0.2,1.1-0.2,2.1-0.5,3
		c-3.2,10.5-1.5,20,4.9,28.9c0.8,1.2,1.1,3.9,0.3,5c-21.8,31.1-43.7,62.1-65.8,93.5c-9.8-3.3-19.5-3.4-28.6,2.3
		c-9,5.7-13.6,14.1-14.7,25.7c-16.3-18.6-32-36.4-47.8-54.3c5.3-8.2,6.9-16.8,4.4-26c-4.6-16.8-21.7-26.3-38.3-21.4
		c-16.4,4.8-25.7,22.5-20.5,38.9c5.2,16.4,23.1,25.4,39.3,19.6c3.6-1.3,5.4-0.9,7.9,2c15.9,18.4,32.1,36.6,48.5,55.2
		c-14.6,9.1-29,18-43.5,27c-8.5-7.9-18.2-11.7-29.8-9c-15.4,3.6-25.7,18.6-23.5,34.1c2.3,15.8,16.3,27.5,31.9,26.5
		c16.6-1.1,29.7-13.9,28.8-30.3c-0.4-7.9,2.4-11.3,8.5-14.8c11.3-6.4,22.1-13.6,33.2-20.4c1.3-0.8,2.7-1.5,4.1-2.2
		c0.3,0.3,0.7,0.5,1,0.8c-0.3,1.1-0.5,2.3-1,3.3c-6.9,15.8-1.5,32.7,12.9,40.5c14.3,7.8,30.9,3.3,40.8-10.8c0.9-1.3,3.2-2.4,4.6-2.2
		c6.8,0.7,13.5,1.8,20.3,2.8c6.6,1,13.2,2,20,3c0.4,2.2,0.8,4.4,1.4,6.7c3.4,14.1,16,23.9,30.2,23.6c14.4-0.3,26.6-10.3,29.6-24.5
		c3-13.9-4.3-28.3-17.3-34.3c-13.1-6-28.8-2.4-37,9.5c-3.3,4.8-6.4,4.9-11.1,4.1c-11.8-2-23.7-3.5-35.5-5.2c-1-3.9-1.6-7.7-2.9-11.2
		c-1.3-3.4-3.5-6.4-5.5-9.9c10.1-13,10.6-26.7,0.8-40.7c18.4-26,36.7-52,55-78c3.7-5.3,7.3-10.7,11.3-15.8c1-1.3,3.6-2.4,5.2-2.2
		c24.6,4.3,42.9-16,36-40.1c-0.2-0.8-0.4-1.5-0.9-3.3c11.5,0,22.4,0,33.3,0c0,85.7,0,171.3,0,257C1141.3,1189,1025.7,1189,910,1189z
		"/>
	<path class="st0" d="M992,812c20.6,17.2,41.2,34.3,62.2,51.9c-73.9,89-147.6,177.9-221.7,267.1c-20.8-17.3-41.4-34.4-62.4-51.9
		c28.5-34.3,56.7-68.3,85.7-103.2c-20.9,4.3-40.4,3.2-59.6-1.8c-17.4-4.6-34-10.9-45.8-25.6c-2.2-2.8-3.6-6.2-5.4-9.4
		c0-2.7,0-5.3,0-8c4.9-11,14.4-16.1,25.3-18.9c19.4-5.1,38.9-4.3,58.3,0.4c6.4,1.5,12.6,3.6,18.8,5.3c-4-8.6-8.6-16.7-11.7-25.4
		c-3.2-8.9-5.4-18.2-7.1-27.5c-2.2-12.4-2.2-24.9,2.4-36.9c5.2-13.6,16.6-18.1,29.2-11c5,2.8,9.8,6.4,13.7,10.6
		c18.1,19.6,27.6,43.2,31.2,69.4c0.8,5.6,1,11.3,1.4,17.3c0.8-0.7,1.2-1,1.5-1.4c27.2-32.8,54.5-65.5,81.7-98.3
		c0.6-0.7,0.9-1.7,1.3-2.5C991.3,812,991.7,812,992,812z M851,832.5c-0.6,0.2-1.2,0.5-1.8,0.7c-0.7,2.7-2,5.3-2.1,8
		c-0.3,6.8-0.6,13.7,0.2,20.4c2.8,23.9,14.6,44,28.1,63.1c1.2,1.7,5,2.1,7.6,2.1c1,0,2.4-2.8,2.9-4.5c0.7-2.7,1.1-5.6,1.1-8.4
		c0.3-25.9-7.9-49.1-23.6-69.5C859.9,840,855.2,836.5,851,832.5z M763.7,936c3.9,3.2,6.9,6.2,10.3,8.3c15,9.5,31.7,13.5,49.2,14.8
		c11.7,0.8,23.4,0.4,34.4-4.1c2.1-0.8,5.1-2.9,5.1-4.3c0-3.3-1.1-6.7-5.4-8c-4.9-1.5-9.6-3.8-14.4-5.7c-17.1-6.9-34.8-10.3-53.2-9
		C781,928.6,772.3,929.9,763.7,936z"/>
</g>
</svg>
